<?xml version="1.0" encoding="UTF-8"?>
<svg width="72px" height="46px" viewBox="0 0 72 46" version="1.1" xmlns="http://www.w3.org/2000/svg" xmlns:xlink="http://www.w3.org/1999/xlink">
    <!-- Generator: Sketch 50.2 (55047) - http://www.bohemiancoding.com/sketch -->
    <title>JanineLogo</title>
    <desc>Created with Sketch.</desc>
    <defs>
        <linearGradient x1="-7.71409349%" y1="31.7919576%" x2="115.695225%" y2="63.01361%" id="linearGradient-1">
            <stop stop-color="#84FAB0" offset="0%"></stop>
            <stop stop-color="#8FD3F4" offset="100%"></stop>
        </linearGradient>
        <linearGradient x1="50%" y1="0%" x2="50%" y2="80.7223043%" id="linearGradient-2">
            <stop stop-color="#84FAB0" offset="0%"></stop>
            <stop stop-color="#8FD3F4" offset="100%"></stop>
        </linearGradient>
        <path d="M4.53791418,43.8981304 C3.18885681,43.8981304 1.83981966,43.7122921 0.490762286,43.3406099 L0.281426843,43.1315397 C0.234907623,43.0386191 0.211648362,42.9224702 0.211648362,42.7830893 C0.304686802,42.5972482 0.444242368,42.504329 0.630319248,42.504329 L0.76987621,42.504329 C1.37462607,42.7366304 1.97936686,42.8876241 2.58411672,42.9573145 C3.18886658,43.0270049 3.81686662,43.0618496 4.4681357,43.0618496 C6.74757748,43.0618496 8.85254061,42.6204836 10.7830882,41.7377383 C12.7136359,40.854993 14.283636,39.5308949 15.4931357,37.7654044 C16.190924,36.696818 16.7491463,35.5469433 17.1678192,34.315746 C17.5864922,33.0845486 17.9004923,31.818525 18.1098287,30.5176372 C18.3191652,29.2167494 18.4238319,27.9391109 18.4238319,26.6846834 C18.4238319,25.4302559 18.4005726,24.2687664 18.3540534,23.20018 C18.0749381,17.4855658 17.1678269,11.8871862 15.6326927,6.4048734 L9.56196482,10.5165875 L9.42240786,10.5165875 C9.18981176,10.5165875 9.05025619,10.4468981 9.00373697,10.3075173 C8.81766009,10.0287556 8.84091935,9.81968747 9.07351545,9.68030664 L15.3535787,5.49890251 C15.1209826,4.70907778 14.88839,3.95410959 14.6557939,3.23397527 C14.4231978,2.51384096 14.1906052,1.78210256 13.9580091,1.03873811 C13.9114899,0.992277828 13.9347492,0.876128875 14.0277876,0.690287762 C14.0277876,0.550906927 14.0975654,0.481217555 14.237123,0.481217555 C14.2836423,0.434757277 14.35342,0.411527487 14.4464585,0.411527487 C14.6790546,0.411527487 14.8186102,0.504446649 14.8651294,0.690287762 C15.0977255,1.38719193 15.3186885,2.08408565 15.5280249,2.78098983 C15.7373614,3.477894 15.9583244,4.17478772 16.1909205,4.87169189 L20.2380724,2.15377921 C20.2845916,2.15377921 20.3311102,2.14216431 20.3776294,2.11893417 C20.4241486,2.09570403 20.4706671,2.08408914 20.5171863,2.08408914 C20.656744,2.08408914 20.7730403,2.15377851 20.8660787,2.29315934 C20.912598,2.33961962 20.9358572,2.45576858 20.9358572,2.64160969 L20.7265218,2.8506799 L16.4700344,5.77766279 C17.2608612,8.61173975 17.8888612,11.4806189 18.3540534,14.3843863 C18.8192456,17.2881537 19.1448753,20.2034924 19.3309522,23.1304899 C19.3774714,24.2455366 19.389101,25.4302559 19.3658414,26.6846834 C19.3425818,27.9391109 19.2379151,29.1935196 19.0518382,30.4479471 C18.8657614,31.7023747 18.563391,32.9567834 18.144718,34.2112109 C17.726045,35.4656384 17.1445635,36.6503577 16.400256,37.7654044 C15.6094292,38.9733716 14.609281,40.0303271 13.3997813,40.9363025 C12.1902816,41.8422779 10.8412444,42.5507865 9.35262937,43.0618496 C7.72445668,43.6193729 6.11956766,43.8981304 4.53791418,43.8981304 Z M22.5407623,24.5242913 C22.1220893,24.5242913 21.7034226,24.3616828 21.2847496,24.0364608 C20.8660766,23.7112389 20.6102248,23.1537239 20.5171863,22.3638992 C20.4241479,21.4346936 20.5637035,20.5868062 20.9358572,19.8202117 C21.308011,19.0536171 21.7499369,18.4147978 22.2616484,17.9037348 C22.9129174,17.2532909 23.7386212,16.8699993 24.7387844,16.7538486 C25.7389477,16.6376979 26.6576885,16.7654618 27.4950344,17.137144 C27.5415537,17.137144 27.5648129,17.1139142 27.5648129,17.0674539 C27.5648129,16.9745334 27.5764425,16.9164589 27.5997022,16.8932288 C27.6229618,16.8699986 27.6345914,16.8119241 27.6345914,16.7190036 C27.7276298,16.4867022 27.8671854,16.4170128 28.0532623,16.5099334 C28.1463007,16.5563937 28.262597,16.626083 28.4021547,16.7190036 C28.5417124,16.8119241 28.5882309,16.9048433 28.5417117,16.9977639 C28.4951924,17.0906844 28.4719332,17.1487589 28.4719332,17.171989 C28.4719332,17.1952192 28.4486739,17.2532937 28.4021547,17.3462142 C28.3091163,17.9501978 28.2509681,18.705166 28.2277085,19.6111414 C28.2044489,20.5171169 28.3788933,21.0862467 28.7510471,21.3185481 C29.1697201,21.5508495 29.8907572,21.0862537 30.91418,19.9247468 C31.0537377,19.6924454 31.2165525,19.6692156 31.4026294,19.8550567 C31.542187,19.9944375 31.5654463,20.1570461 31.4724079,20.3428872 C30.2629081,21.8296161 29.2395006,22.3639013 28.4021547,21.9457587 C28.0300009,21.7134574 27.7741491,21.3882403 27.6345914,20.9700978 C27.4950337,20.5519553 27.425256,20.0641297 27.425256,19.5066063 C27.1926599,20.0641297 26.8902895,20.6332596 26.5181357,21.214013 C26.1459819,21.7947665 25.7505745,22.3290517 25.3319015,22.8168846 C24.9132285,23.3047175 24.459673,23.7112389 23.9712211,24.0364608 C23.4827693,24.3616828 23.0059545,24.5242913 22.5407623,24.5242913 Z M22.8896547,18.5309454 C22.3779433,19.0884687 22.0290544,19.6343688 21.8429775,20.168662 C21.6569006,20.7029552 21.5522339,21.1907808 21.5289743,21.6321534 C21.5057147,22.0735261 21.5406036,22.4568176 21.633642,22.7820396 C21.7266805,23.1072615 21.8197175,23.3163296 21.912756,23.4092502 C22.2849097,23.873853 22.7500949,23.9435423 23.3083256,23.6183204 C23.8665562,23.2930985 24.4247785,22.7820431 24.9830091,22.0851389 C25.5412398,21.3882347 26.0413139,20.6332665 26.4832465,19.8202117 C26.9251791,19.0071568 27.1926606,18.3451077 27.285699,17.8340447 C26.4018338,17.4623625 25.5412412,17.3926731 24.7038952,17.6249745 C23.8665492,17.8572759 23.2618085,18.1592632 22.8896547,18.5309454 Z M42.4974079,19.5762964 C42.4974079,19.4369156 42.5904449,19.3672262 42.7765218,19.3672262 C42.8695602,19.3672262 42.9160787,19.4136858 42.9160787,19.5066063 C42.9160787,19.7389077 42.8114121,20.0641248 42.6020756,20.4822673 C42.3927391,20.9004098 42.1368872,21.318546 41.8345123,21.7366885 C41.5321374,22.154831 41.1716188,22.5381226 40.7529458,22.8865747 C40.3342729,23.2350268 39.9156062,23.4557098 39.4969332,23.5486303 C39.2643371,23.5950906 38.9852259,23.5602459 38.6595914,23.4440952 C38.3339569,23.3279445 38.0548457,23.1304913 37.8222496,22.8517296 C37.4500959,22.3871269 37.2175033,21.7483076 37.1244648,20.9352528 C37.0314264,20.1221979 36.9616486,19.3207701 36.9151294,18.5309454 C36.8686102,17.7411206 36.7755731,17.0442269 36.6360155,16.4402433 C36.4964578,15.8362597 36.1940874,15.5342724 35.7288952,15.5342724 C35.0311069,15.5342724 34.4728846,16.0453278 34.0542117,17.0674539 C33.6355387,18.0895801 33.2982794,19.2626845 33.0424237,20.5868024 C32.786568,21.9109203 32.6004939,23.2234035 32.4841958,24.5242913 C32.3678978,25.8251791 32.2864904,26.7543707 32.2399711,27.311894 C32.2399711,27.4048146 32.0655267,27.474504 31.7166325,27.5209643 C31.3677384,27.5674245 31.1932939,27.5441947 31.1932939,27.4512742 C31.1932939,25.6857836 31.1700347,23.9087046 31.1235155,22.1199839 C31.0769962,20.3312632 30.9839592,18.5541842 30.8444015,16.7886937 C30.8444015,16.6493128 30.9374386,16.5796235 31.1235155,16.5796235 C31.1700347,16.5796235 31.2630717,16.5912383 31.4026294,16.6144685 C31.542187,16.6376986 31.6119648,16.6957731 31.6119648,16.7886937 C31.658484,17.0674553 31.7050026,17.5785107 31.7515218,18.3218752 C31.798041,19.0652396 31.8213003,19.8782823 31.8213003,20.7610276 L31.8213003,25.221192 C31.8678195,24.89597 31.9259676,24.1642316 31.9957465,23.0259548 C32.0655253,21.887678 32.2283401,20.7029587 32.4841958,19.4717613 C32.7400515,18.2405639 33.1238293,17.1487638 33.6355408,16.1963281 C34.1472522,15.2438924 34.8682893,14.7676817 35.7986737,14.7676817 C36.496462,14.7676817 36.9732768,15.0464391 37.2291325,15.6039625 C37.4849882,16.1614858 37.6594327,16.6725412 37.7524711,17.137144 C37.7989904,17.5552865 37.8571385,18.0895717 37.9269173,18.7400156 C37.9966962,19.3904595 38.0897332,20.0176638 38.2060313,20.6216474 C38.3223293,21.2256311 38.4851442,21.7366865 38.6944806,22.154829 C38.9038171,22.5729715 39.2178172,22.7820396 39.6364901,22.7820396 C39.9156055,22.7820396 40.2063462,22.6542757 40.5087211,22.3987442 C40.8110961,22.1432127 41.0902072,21.8528403 41.3460629,21.5276183 C41.6019186,21.2023964 41.8345112,20.8539495 42.0438477,20.4822673 C42.2531842,20.1105851 42.4043694,19.8085978 42.4974079,19.5762964 Z M43.823199,26.6149934 C43.3114876,26.5220728 42.8463024,26.1968557 42.4276294,25.6393324 C42.0089564,25.0818091 41.8926601,23.9435493 42.078737,22.224519 C42.1252562,21.7599162 42.2066636,21.2256311 42.3229617,20.6216474 C42.4392597,20.0176638 42.5904449,19.4136893 42.7765218,18.8097057 C42.9625987,18.1592618 43.171932,17.462368 43.4045281,16.7190036 C43.4975665,16.4402419 43.6371221,16.3473228 43.823199,16.4402433 C43.9162374,16.4867036 44.0674226,16.5447781 44.2767591,16.6144685 C44.4860956,16.6841589 44.567503,16.7654632 44.5209838,16.8583837 C44.2418685,17.5552879 44.0092759,18.2289518 43.823199,18.8793957 C43.6371221,19.4369191 43.4626777,20.0292787 43.2998604,20.6564925 C43.1370431,21.2837062 43.0323764,21.8063765 42.9858572,22.224519 C42.8928188,23.0143438 42.8695595,23.8041566 42.9160787,24.5939814 C42.962598,25.3838061 43.3114869,25.8251721 43.962756,25.9180927 C44.3814289,26.0110132 44.9280216,25.8832494 45.6025503,25.5347973 C46.2770789,25.1863452 46.9632272,24.6636749 47.6610155,23.9667707 C48.3122845,23.3163269 48.8705068,22.6426629 49.335699,21.9457587 C49.8008912,21.2488546 50.1032616,20.6216502 50.2428192,20.0641269 C50.3358577,19.8318255 50.4754133,19.7389063 50.6614901,19.7853666 C50.847567,19.7853666 50.9406041,19.9247454 50.9406041,20.203507 C50.8010464,20.8074906 50.4754167,21.5043844 49.9637053,22.2942091 C49.4519939,23.0840338 48.8239939,23.8273871 48.0796863,24.5242913 C47.8936095,24.6636721 47.6493872,24.8727402 47.3470123,25.1515019 C47.0446374,25.4302636 46.6957484,25.6857913 46.3003351,25.9180927 C45.9049217,26.1503941 45.4978846,26.3478473 45.0792117,26.5104583 C44.6605387,26.6730692 44.241872,26.7079139 43.823199,26.6149934 Z M45.1489901,13.7920207 C45.1489901,14.3030838 44.8931383,14.5586115 44.3814268,14.5586115 C43.8697154,14.5586115 43.6138636,14.3030838 43.6138636,13.7920207 C43.6138636,13.2809576 43.8697154,13.0254299 44.3814268,13.0254299 C44.8931383,13.0254299 45.1489901,13.2809576 45.1489901,13.7920207 Z M61.6864901,19.5762964 C61.6864901,19.4369156 61.7795272,19.3672262 61.9656041,19.3672262 C62.0586425,19.3672262 62.105161,19.4136858 62.105161,19.5066063 C62.105161,19.7389077 62.0004943,20.0641248 61.7911579,20.4822673 C61.5818214,20.9004098 61.3259695,21.318546 61.0235946,21.7366885 C60.7212196,22.154831 60.3607011,22.5381226 59.9420281,22.8865747 C59.5233551,23.2350268 59.1046884,23.4557098 58.6860155,23.5486303 C58.4534194,23.5950906 58.1743082,23.5602459 57.8486737,23.4440952 C57.5230391,23.3279445 57.243928,23.1304913 57.0113319,22.8517296 C56.6391781,22.3871269 56.4065855,21.7483076 56.3135471,20.9352528 C56.2205087,20.1221979 56.1507309,19.3207701 56.1042117,18.5309454 C56.0576924,17.7411206 55.9646554,17.0442269 55.8250977,16.4402433 C55.6855401,15.8362597 55.3831697,15.5342724 54.9179775,15.5342724 C54.2201892,15.5342724 53.6619669,16.0453278 53.2432939,17.0674539 C52.824621,18.0895801 52.4873617,19.2626845 52.231506,20.5868024 C51.9756502,21.9109203 51.7895762,23.2234035 51.6732781,24.5242913 C51.5569801,25.8251791 51.4755726,26.7543707 51.4290534,27.311894 C51.4290534,27.4048146 51.254609,27.474504 50.9057148,27.5209643 C50.5568207,27.5674245 50.3823762,27.5441947 50.3823762,27.4512742 C50.3823762,25.6857836 50.3591169,23.9087046 50.3125977,22.1199839 C50.2660785,20.3312632 50.1730415,18.5541842 50.0334838,16.7886937 C50.0334838,16.6493128 50.1265208,16.5796235 50.3125977,16.5796235 C50.3591169,16.5796235 50.452154,16.5912383 50.5917117,16.6144685 C50.7312693,16.6376986 50.8010471,16.6957731 50.8010471,16.7886937 C50.8475663,17.0674553 50.8940848,17.5785107 50.9406041,18.3218752 C50.9871233,19.0652396 51.0103825,19.8782823 51.0103825,20.7610276 L51.0103825,25.221192 C51.0569018,24.89597 51.1150499,24.1642316 51.1848287,23.0259548 C51.2546076,21.887678 51.4174224,20.7029587 51.6732781,19.4717613 C51.9291338,18.2405639 52.3129116,17.1487638 52.824623,16.1963281 C53.3363345,15.2438924 54.0573716,14.7676817 54.987756,14.7676817 C55.6855443,14.7676817 56.1623591,15.0464391 56.4182148,15.6039625 C56.6740705,16.1614858 56.848515,16.6725412 56.9415534,17.137144 C56.9880726,17.5552865 57.0462208,18.0895717 57.1159996,18.7400156 C57.1857785,19.3904595 57.2788155,20.0176638 57.3951136,20.6216474 C57.5114116,21.2256311 57.6742264,21.7366865 57.8835629,22.154829 C58.0928994,22.5729715 58.4068994,22.7820396 58.8255724,22.7820396 C59.1046877,22.7820396 59.3954285,22.6542757 59.6978034,22.3987442 C60.0001784,22.1432127 60.2792895,21.8528403 60.5351452,21.5276183 C60.7910009,21.2023964 61.0235935,20.8539495 61.23293,20.4822673 C61.4422665,20.1105851 61.5934517,19.8085978 61.6864901,19.5762964 Z M63.7798446,23.4789403 C63.1750947,23.2466389 62.6750206,22.8517324 62.2796072,22.2942091 C61.8841939,21.7366858 61.6399716,21.1327112 61.5469332,20.4822673 C61.4538947,19.6459823 61.5236725,18.8677843 61.7562686,18.14765 C61.9888647,17.4275157 62.3842722,16.8583858 62.9425028,16.4402433 C63.1750989,16.2079419 63.4890989,16.0569483 63.8845123,15.9872579 C64.2799257,15.9175674 64.6171849,15.9988717 64.8963003,16.2311731 C65.2219348,16.4634745 65.3149718,16.7770767 65.1754142,17.171989 C65.0358565,17.5669014 64.8497824,17.9037334 64.6171863,18.182495 C64.338071,18.507717 64.0008117,18.8213192 63.6053984,19.123311 C63.209985,19.4253028 62.8029479,19.7853645 62.3842749,20.203507 C62.4307942,20.9468715 62.6168683,21.5043865 62.9425028,21.8760687 C63.2681373,22.2477509 63.6402855,22.5265084 64.0589585,22.7123495 C65.0823813,23.1769523 66.1523073,22.9214246 67.2687686,21.9457587 C67.9200377,21.4346957 68.47826,20.7610318 68.9434522,19.9247468 C69.129529,19.7389056 69.2923439,19.6924461 69.4319015,19.7853666 C69.6644976,19.9712077 69.7110161,20.1338163 69.5714585,20.2731971 C69.0597471,21.1559424 68.4782655,21.8528361 67.8269965,22.3638992 C67.5944004,22.5497403 67.3501781,22.7471935 67.0943224,22.9562647 C66.8384667,23.165336 66.5360963,23.3395594 66.1872022,23.4789403 C65.838308,23.6183211 65.4661598,23.6996254 65.0707465,23.7228555 C64.6753331,23.7460856 64.2450368,23.6647814 63.7798446,23.4789403 Z M64.1985155,16.7190036 C63.9659194,16.7190036 63.756586,16.8119228 63.5705091,16.9977639 C63.1983554,17.2765255 62.9192442,17.6365873 62.7331673,18.0779599 C62.5470905,18.5193326 62.4307942,18.9723135 62.3842749,19.4369163 C62.7564287,19.065234 63.0704287,18.7632468 63.3262844,18.5309454 C63.5821401,18.298644 63.8263624,18.0663461 64.0589585,17.8340447 C64.1519969,17.6946639 64.2915525,17.5088255 64.4776294,17.2765241 C64.6637063,17.0442227 64.6637063,16.8816142 64.4776294,16.7886937 C64.4311102,16.7422334 64.3380731,16.7190036 64.1985155,16.7190036 Z" id="path-3"></path>
    </defs>
    <g id="Page-1" stroke="none" stroke-width="1" fill="none" fill-rule="evenodd">
        <g id="Desktop" transform="translate(-81.000000, -76.000000)">
            <g id="JanineLogo" transform="translate(82.000000, 77.000000)">
                <g id="Janine">
                    <use fill="#FFFFFF" xlink:href="#path-3"></use>
                    <use fill="url(#linearGradient-1)" xlink:href="#path-3"></use>
                </g>
            </g>
        </g>
    </g>
</svg>