<?xml version="1.0" encoding="UTF-8"?>
<svg width="74px" height="47px" viewBox="0 0 74 47" version="1.1" xmlns="http://www.w3.org/2000/svg" xmlns:xlink="http://www.w3.org/1999/xlink">
    <!-- Generator: Sketch 51.2 (57519) - http://www.bohemiancoding.com/sketch -->
    <title>JanineLogo</title>
    <desc>Created with Sketch.</desc>
    <defs>
        <linearGradient x1="-7.71409349%" y1="31.7919576%" x2="115.695225%" y2="63.01361%" id="linearGradient-1">
            <stop stop-color="#5CC1ED" offset="0%"></stop>
            <stop stop-color="#C5ECFF" offset="100%"></stop>
        </linearGradient>
        <path d="M4.719179,45.6516202 C3.31623417,45.6516202 1.91331038,45.4583587 0.510365551,45.0718298 L0.292668303,44.8544084 C0.244290896,44.7577762 0.220102554,44.6369877 0.220102554,44.4920394 C0.31685737,44.2987749 0.461987417,44.2021441 0.655497049,44.2021441 L0.800628547,44.2021441 C1.42953485,44.4437247 2.05843172,44.6007497 2.68733802,44.6732239 C3.31624432,44.745698 3.96932954,44.7819346 4.64661325,44.7819346 C7.01710623,44.7819346 9.20615111,44.3229384 11.2138135,43.4049323 C13.221476,42.4869262 14.854189,41.1099376 16.1120016,39.2739254 C16.8376627,38.1626548 17.4181829,36.966849 17.8535796,35.686472 C18.2889762,34.4060951 18.6155188,33.0895008 18.8332172,31.7366496 C19.0509155,30.3837985 19.1597631,29.0551254 19.1597631,27.7505903 C19.1597631,26.4460553 19.1355747,25.2381706 19.0871973,24.1269001 C18.7969329,18.1840183 17.8535876,12.3620142 16.2571331,6.66071301 L9.94391293,10.9366675 L9.79878143,10.9366675 C9.55689439,10.9366675 9.41176434,10.8641944 9.36338693,10.7192461 C9.1698773,10.4293494 9.19406564,10.2119302 9.43595268,10.0669819 L15.9668701,5.71855354 C15.7249831,4.89717964 15.4830996,4.1120546 15.2412126,3.36315487 C14.9993256,2.61425514 14.7574422,1.85328779 14.5155551,1.08023 C14.4671777,1.03191389 14.491366,0.911125423 14.5881209,0.717860976 C14.5881209,0.572912641 14.6606859,0.50043956 14.8058181,0.50043956 C14.8541955,0.452123449 14.9267605,0.427965755 15.0235154,0.427965755 C15.2654024,0.427965755 15.4105324,0.524596529 15.4589099,0.717860976 C15.7007969,1.44260265 15.9305861,2.16733346 16.1482845,2.89207513 C16.3659828,3.61681681 16.595772,4.34154762 16.8376591,5.06628929 L21.0464725,2.23981089 C21.0948499,2.23981089 21.1432266,2.22773204 21.191604,2.20357398 C21.2399814,2.17941593 21.2883581,2.16733708 21.3367355,2.16733708 C21.4818678,2.16733708 21.6028095,2.23981016 21.6995643,2.3847585 C21.7479417,2.43307461 21.77213,2.55386308 21.77213,2.74712752 L21.5544328,2.96454894 L17.1279221,6.00844876 C17.950338,8.95573158 18.6034232,11.9392067 19.0871973,14.9589637 C19.5709714,17.9787207 19.9096082,21.0105112 20.1031178,24.0544263 C20.1514952,25.214013 20.1635894,26.4460553 20.1394007,27.7505903 C20.115212,29.0551254 20.0063644,30.3596408 19.8128548,31.6641758 C19.6193452,32.9687108 19.3048967,34.2732263 18.8695001,35.5777613 C18.4341034,36.8822963 17.8293949,38.1143387 17.0553563,39.2739254 C16.2329404,40.5301443 15.1928417,41.6293193 13.9350291,42.5714835 C12.6772165,43.5136477 11.2742927,44.2504573 9.72621568,44.7819346 C8.0330064,45.3617279 6.36401086,45.6516202 4.719179,45.6516202 Z M23.4411422,25.5039024 C23.0057456,25.5039024 22.5703554,25.3347985 22.1349588,24.9965857 C21.6995621,24.658373 21.4334903,24.0785883 21.3367355,23.2572144 C21.2399807,22.2908922 21.3851108,21.4091364 21.77213,20.6119205 C22.1591493,19.8147047 22.6187278,19.1503681 23.1508793,18.6188909 C23.828163,17.9424653 24.6868491,17.5438634 25.7269633,17.4230731 C26.7670776,17.3022828 27.7225171,17.4351501 28.5933104,17.821679 C28.6416878,17.821679 28.6658762,17.7975213 28.6658762,17.7492052 C28.6658762,17.652573 28.6779704,17.5921788 28.7021591,17.5680207 C28.7263478,17.5438626 28.7384419,17.4834684 28.7384419,17.3868362 C28.8351967,17.1452556 28.9803268,17.0727825 29.1738364,17.1694148 C29.2705912,17.2177309 29.3915329,17.290204 29.5366652,17.3868362 C29.6817974,17.4834684 29.7301741,17.5800992 29.6817967,17.6767314 C29.6334193,17.7733636 29.6092309,17.8337579 29.6092309,17.8579159 C29.6092309,17.882074 29.5850426,17.9424682 29.5366652,18.0391004 C29.4399104,18.6672099 29.3794395,19.4523349 29.3552508,20.3944991 C29.3310621,21.3366633 29.5124747,21.9285268 29.8994939,22.1701073 C30.3348906,22.4116879 31.0847292,21.928534 32.1490321,20.7206312 C32.2941644,20.4790507 32.4634827,20.454893 32.6569924,20.6481574 C32.8021246,20.7931058 32.8263129,20.9622096 32.7295581,21.1554741 C31.4717455,22.7015896 30.4074585,23.2572166 29.5366652,22.8223716 C29.1496459,22.580791 28.8835742,22.2425833 28.7384419,21.8077383 C28.5933097,21.3728933 28.5207447,20.8655817 28.5207447,20.2857884 C28.2788576,20.8655817 27.9644092,21.4574452 27.5773899,22.0613966 C27.1903707,22.665348 26.7791689,23.220975 26.3437722,23.7282941 C25.9083755,24.2356133 25.4367029,24.658373 24.9287401,24.9965857 C24.4207773,25.3347985 23.9249163,25.5039024 23.4411422,25.5039024 Z M23.803971,19.2711551 C23.2718195,19.8509485 22.9089944,20.4186543 22.7154848,20.9742895 C22.5219751,21.5299248 22.4131276,22.0372364 22.3889389,22.4962395 C22.3647502,22.9552425 22.4010327,23.3538445 22.4977875,23.6920572 C22.5945423,24.03027 22.6912957,24.2476893 22.7880505,24.3443215 C23.1750698,24.8274826 23.6588366,24.8999557 24.2393655,24.5617429 C24.8198944,24.2235301 25.4004146,23.6920609 25.9809435,22.9673192 C26.5614724,22.2425775 27.0815217,21.4574525 27.5411071,20.6119205 C28.0006924,19.7663886 28.2788584,19.0778943 28.3756132,18.5464171 C27.4564424,18.1598882 26.5614738,18.0874151 25.6906805,18.3289957 C24.8198871,18.5705762 24.1909903,18.8846262 23.803971,19.2711551 Z M44.1949465,20.3582622 C44.1949465,20.2133139 44.2916998,20.1408408 44.4852095,20.1408408 C44.5819643,20.1408408 44.630341,20.1891562 44.630341,20.2857884 C44.630341,20.527369 44.5214934,20.8655767 44.3037951,21.3004217 C44.0860968,21.7352667 43.820025,22.1701052 43.5055719,22.6049502 C43.1911187,23.0397952 42.8161994,23.4383971 42.3808028,23.800768 C41.9454061,24.1631388 41.5100159,24.3926369 41.0746193,24.4892691 C40.8327322,24.5375852 40.5424721,24.5013487 40.2038303,24.3805584 C39.8651884,24.2597681 39.5749283,24.0544277 39.3330413,23.7645311 C38.946022,23.2813699 38.7041386,22.6170334 38.6073838,21.7715014 C38.510629,20.9259694 38.438064,20.092529 38.3896866,19.2711551 C38.3413091,18.4497812 38.2445558,17.7250504 38.0994236,17.096941 C37.9542913,16.4688315 37.6398429,16.1547815 37.1560688,16.1547815 C36.4304077,16.1547815 35.8498875,16.6862508 35.4144908,17.7492052 C34.9790942,18.8121597 34.6283632,20.0321232 34.3622875,21.4091324 C34.0962117,22.7861416 33.902705,24.1510512 33.7817615,25.5039024 C33.660818,26.8567535 33.5761588,27.8230612 33.5277814,28.4028546 C33.5277814,28.4994868 33.3463688,28.5719599 32.9835382,28.620276 C32.6207077,28.6685921 32.4392951,28.6444344 32.4392951,28.5478022 C32.4392951,26.71179 32.4151068,24.8637264 32.3667294,23.0035561 C32.318352,21.1433858 32.2215986,19.2953222 32.0764664,17.45931 C32.0764664,17.3143617 32.1732198,17.2418886 32.3667294,17.2418886 C32.4151068,17.2418886 32.5118602,17.2539674 32.6569924,17.2781255 C32.8021246,17.3022835 32.8746896,17.3626778 32.8746896,17.45931 C32.923067,17.7492067 32.9714437,18.2806759 33.0198211,19.0537337 C33.0681985,19.8267915 33.0923869,20.6723108 33.0923869,21.5903169 L33.0923869,26.2286404 C33.1407643,25.8904276 33.2012351,25.1294603 33.2738012,23.9457156 C33.3463674,22.7619708 33.5156857,21.5299285 33.7817615,20.2495515 C34.0478372,18.9691745 34.4469449,17.8337629 34.9790963,16.8432826 C35.5112478,15.8528024 36.2610864,15.3575696 37.2286346,15.3575696 C37.9542957,15.3575696 38.4501567,15.647462 38.7162324,16.2272553 C38.9823082,16.8070486 39.1637207,17.3385179 39.2604755,17.821679 C39.3088529,18.256524 39.3693238,18.812151 39.4418899,19.4885765 C39.514456,20.1650021 39.6112094,20.8172598 39.7321529,21.4453693 C39.8530964,22.0734787 40.0224148,22.604948 40.2401132,23.039793 C40.4578115,23.474638 40.7843541,23.6920572 41.2197508,23.6920572 C41.5100152,23.6920572 41.8123695,23.5591899 42.1268226,23.2934513 C42.4412758,23.0277127 42.7315359,22.7257415 42.9976116,22.3875288 C43.2636874,22.049316 43.5055708,21.6869506 43.7232691,21.3004217 C43.9409674,20.9138928 44.0981917,20.5998428 44.1949465,20.3582622 Z M45.5736957,27.6781165 C45.0415442,27.5814843 44.5577774,27.2432766 44.1223807,26.6634833 C43.6869841,26.0836899 43.5660424,24.8999629 43.759552,23.1122668 C43.8079294,22.6291057 43.8925886,22.0734787 44.0135321,21.4453693 C44.1344756,20.8172598 44.2916998,20.1891598 44.4852095,19.5610503 C44.6787191,18.8846248 44.8964142,18.159894 45.1383012,17.3868362 C45.235056,17.0969395 45.3801861,17.0003087 45.5736957,17.096941 C45.6704505,17.1452571 45.8276747,17.2056513 46.0453731,17.2781255 C46.2630714,17.3505996 46.3477306,17.4351516 46.2993532,17.5317838 C46.0090888,18.2565255 45.7672053,18.9570986 45.5736957,19.6335242 C45.3801861,20.2133175 45.1987735,20.8293387 45.0294526,21.4816062 C44.8601317,22.1338737 44.7512841,22.6774218 44.7029067,23.1122668 C44.6061519,23.9336407 44.5819636,24.7550023 44.630341,25.5763762 C44.6787184,26.3977501 45.0415435,26.8567463 45.7188272,26.9533785 C46.1542239,27.0500107 46.7226499,26.9171434 47.4241223,26.5547726 C48.1255947,26.1924017 48.8391508,25.6488536 49.5648119,24.9241119 C50.2420956,24.2476864 50.8226158,23.5471133 51.3063899,22.8223716 C51.790164,22.0976299 52.1046124,21.4453722 52.2497446,20.8655788 C52.3464994,20.6239983 52.4916295,20.5273675 52.6851391,20.5756836 C52.8786487,20.5756836 52.9754021,20.7206298 52.9754021,21.0105265 C52.8302699,21.6386359 52.4916331,22.3633667 51.9594816,23.1847406 C51.4273301,24.0061145 50.7742449,24.7791607 50.0002064,25.5039024 C49.8066968,25.6488507 49.5527192,25.86627 49.238266,26.1561666 C48.9238129,26.4460633 48.5609878,26.7117979 48.1497798,26.9533785 C47.7385718,27.194959 47.3152759,27.4002994 46.8798792,27.5694058 C46.4444825,27.7385122 46.0090924,27.7747488 45.5736957,27.6781165 Z M46.9524449,14.3429364 C46.9524449,14.8744136 46.6863732,15.1401482 46.1542217,15.1401482 C45.6220702,15.1401482 45.3559985,14.8744136 45.3559985,14.3429364 C45.3559985,13.8114591 45.6220702,13.5457245 46.1542217,13.5457245 C46.6863732,13.5457245 46.9524449,13.8114591 46.9524449,14.3429364 Z M64.1505275,20.3582622 C64.1505275,20.2133139 64.2472808,20.1408408 64.4407905,20.1408408 C64.5375453,20.1408408 64.585922,20.1891562 64.585922,20.2857884 C64.585922,20.527369 64.4770744,20.8655767 64.2593761,21.3004217 C64.0416778,21.7352667 63.775606,22.1701052 63.4611528,22.6049502 C63.1466997,23.0397952 62.7717804,23.4383971 62.3363837,23.800768 C61.9009871,24.1631388 61.4655969,24.3926369 61.0302003,24.4892691 C60.7883132,24.5375852 60.4980531,24.5013487 60.1594113,24.3805584 C59.8207694,24.2597681 59.5305093,24.0544277 59.2886223,23.7645311 C58.901603,23.2813699 58.6597196,22.6170334 58.5629648,21.7715014 C58.46621,20.9259694 58.3936449,20.092529 58.3452675,19.2711551 C58.2968901,18.4497812 58.2001368,17.7250504 58.0550045,17.096941 C57.9098723,16.4688315 57.5954239,16.1547815 57.1116498,16.1547815 C56.3859887,16.1547815 55.8054685,16.6862508 55.3700718,17.7492052 C54.9346752,18.8121597 54.5839442,20.0321232 54.3178685,21.4091324 C54.0517927,22.7861416 53.858286,24.1510512 53.7373425,25.5039024 C53.616399,26.8567535 53.5317398,27.8230612 53.4833624,28.4028546 C53.4833624,28.4994868 53.3019498,28.5719599 52.9391192,28.620276 C52.5762887,28.6685921 52.3948761,28.6444344 52.3948761,28.5478022 C52.3948761,26.71179 52.3706878,24.8637264 52.3223104,23.0035561 C52.273933,21.1433858 52.1771796,19.2953222 52.0320474,17.45931 C52.0320474,17.3143617 52.1288007,17.2418886 52.3223104,17.2418886 C52.3706878,17.2418886 52.4674411,17.2539674 52.6125734,17.2781255 C52.7577056,17.3022835 52.8302706,17.3626778 52.8302706,17.45931 C52.878648,17.7492067 52.9270247,18.2806759 52.9754021,19.0537337 C53.0237795,19.8267915 53.0479679,20.6723108 53.0479679,21.5903169 L53.0479679,26.2286404 C53.0963453,25.8904276 53.1568161,25.1294603 53.2293822,23.9457156 C53.3019483,22.7619708 53.4712667,21.5299285 53.7373425,20.2495515 C54.0034182,18.9691745 54.4025258,17.8337629 54.9346773,16.8432826 C55.4668288,15.8528024 56.2166674,15.3575696 57.1842156,15.3575696 C57.9098767,15.3575696 58.4057377,15.647462 58.6718134,16.2272553 C58.9378892,16.8070486 59.1193017,17.3385179 59.2160565,17.821679 C59.2644339,18.256524 59.3249048,18.812151 59.3974709,19.4885765 C59.470037,20.1650021 59.5667904,20.8172598 59.6877339,21.4453693 C59.8086774,22.0734787 59.9779958,22.604948 60.1956941,23.039793 C60.4133925,23.474638 60.7399351,23.6920572 61.1753318,23.6920572 C61.4655962,23.6920572 61.7679505,23.5591899 62.0824036,23.2934513 C62.3968568,23.0277127 62.6871169,22.7257415 62.9531926,22.3875288 C63.2192683,22.049316 63.4611518,21.6869506 63.6788501,21.3004217 C63.8965484,20.9138928 64.0537726,20.5998428 64.1505275,20.3582622 Z M66.3274999,24.4167953 C65.6985936,24.1752147 65.1785443,23.7645339 64.7673363,23.1847406 C64.3561284,22.6049473 64.1021508,21.9768472 64.005396,21.3004217 C63.9086412,20.4307317 63.9812062,19.6214489 64.2230932,18.8725492 C64.4649803,18.1236495 64.8761821,17.531786 65.4567109,17.096941 C65.698598,16.8553604 66.0251406,16.6983354 66.4363486,16.6258612 C66.8475565,16.5533871 67.1982875,16.637939 67.4885519,16.8795196 C67.8271938,17.1211001 67.9239471,17.447229 67.7788149,17.8579159 C67.6336827,18.2686029 67.440176,18.6188894 67.1982889,18.9087861 C66.9080245,19.2469989 66.5572935,19.5731277 66.1460856,19.8871825 C65.7348776,20.2012372 65.3115816,20.5756814 64.876185,21.0105265 C64.9245624,21.7835842 65.1180691,22.3633689 65.4567109,22.7498978 C65.7953528,23.1364267 66.1823663,23.426319 66.6177629,23.6195834 C67.6820659,24.1027446 68.7947296,23.8370099 69.9557874,22.8223716 C70.6330711,22.2908944 71.2135913,21.5903212 71.6973654,20.7206312 C71.890875,20.5273668 72.0601934,20.4790514 72.2053256,20.5756836 C72.4472126,20.7689481 72.4955893,20.9380519 72.3504571,21.0830003 C71.8183056,22.0010064 71.2135971,22.7257372 70.5363134,23.2572144 C70.2944263,23.4504789 70.0404488,23.6558193 69.774373,23.8732418 C69.5082973,24.0906643 69.1938488,24.271847 68.8310183,24.4167953 C68.4681877,24.5617436 68.0811743,24.6462956 67.6699663,24.6704536 C67.2587583,24.6946117 66.811274,24.6100597 66.3274999,24.4167953 Z M66.7628944,17.3868362 C66.5210074,17.3868362 66.3033123,17.483467 66.1098027,17.6767314 C65.7227834,17.9666281 65.4325233,18.3410723 65.2390137,18.8000754 C65.0455041,19.2590785 64.9245624,19.7301535 64.876185,20.2133146 C65.2632042,19.8267857 65.5897468,19.5127357 65.8558226,19.2711551 C66.1218983,19.0295746 66.3758759,18.7879976 66.6177629,18.5464171 C66.7145177,18.4014687 66.8596478,18.2082072 67.0531574,17.9666266 C67.2466671,17.7250461 67.2466671,17.5559422 67.0531574,17.45931 C67.00478,17.4109939 66.9080267,17.3868362 66.7628944,17.3868362 Z" id="path-2"></path>
    </defs>
    <g id="Page-1" stroke="none" stroke-width="1" fill="none" fill-rule="evenodd">
        <g id="Tablet" transform="translate(-35.000000, -50.000000)">
            <g id="Section_Intro">
                <g id="JanineLogo" transform="translate(36.000000, 50.000000)">
                    <g id="Janine">
                        <use fill="#FFFFFF" xlink:href="#path-2"></use>
                        <use fill="url(#linearGradient-1)" xlink:href="#path-2"></use>
                    </g>
                </g>
            </g>
        </g>
    </g>
</svg>